# xmcd
# 
# Track frame offsets:
#     150
#     17914
#     30439
#     45118
#     59808
#     75939
#     91930
#     111241
#     126433
#     145276
#     158361
#     174140
# 
# Disc length: 2490
# 
# Revision: 0
# Processed by: cddbd v1.5.2PL0 Copyright (c) Steve Scherf et al.
# Submitted via: fre:ac v1.0.31
# 
DISCID=8909b80c
DTITLE=南沙織 - ジャニスへの手紙
DYEAR=1976
DGENRE=J-POP
TTITLE0=I Love You Best （哀しい妖精）
TTITLE1=Back Home
TTITLE2=People Talk （輝く瞳）
TTITLE3=I'm Holding On
TTITLE4=One More Tomorrow （長い帰り道）
TTITLE5=Angela （アンジェラ）
TTITLE6=Four Strong Winds （風は激しく）
TTITLE7=Early Morning Rain （朝の雨）
TTITLE8=I Dig Rock And Roll Music　（ロック天国）
TTITLE9=Don't Think Twice It's All Right
TTITLE10=Swallow Song （つばめの歌）
TTITLE11=Blowin' In The Wind （風に吹かれて）
EXTD=Cynthia Premium 15 of 21
EXTT0=
EXTT1=
EXTT2=
EXTT3=
EXTT4=
EXTT5=
EXTT6=
EXTT7=
EXTT8=
EXTT9=
EXTT10=
EXTT11=
PLAYORDER=
